<svg xmlns="http://www.w3.org/2000/svg" viewBox="0 0 24 24" fill="currentColor">
  <path d="M17.813 4.653h.854c1.27.04 2.056.2 2.638.563.582.363.93.964 1.18 1.794.25.83.29 1.826.3 3.356V13.5c0 1.53-.05 2.527-.3 3.356-.25.83-.598 1.43-1.18 1.794-.582.364-1.368.524-2.638.563h-7.32c-1.53 0-2.527-.05-3.356-.3-.83-.25-1.43-.598-1.794-1.18-.364-.582-.524-1.368-.563-2.638v-1.756c-.28.16-.6.29-.948.39-.348.1-.707.15-1.075.15-.66 0-1.226-.24-1.697-.718-.47-.478-.706-1.054-.706-1.728 0-.66.236-1.22.707-1.68.47-.46 1.037-.69 1.696-.69.37 0 .73.05 1.075.15.35.1.667.23.95.39V9.346c.04-1.27.2-2.056.563-2.638.363-.582.964-.93 1.794-1.18.83-.25 1.826-.29 3.356-.3h5.467zm-5.466 1.5c-1.27.03-1.956.16-2.368.39-.412.23-.67.59-.85 1.19-.18.6-.23 1.34-.23 2.613v5.308c.03 1.27.16 1.956.39 2.368.23.412.59.67 1.19.85.6.18 1.34.23 2.613.23h5.308c1.27-.03 1.956-.16 2.368-.39.412-.23.67-.59.85-1.19.18-.6.23-1.34.23-2.613V9.346c-.03-1.27-.16-1.956-.39-2.368-.23-.412-.59-.67-1.19-.85-.6-.18-1.34-.23-2.613-.23H12.347zm-2.054 4.094c-.414 0-.75.336-.75.75s.336.75.75.75.75-.336.75-.75-.336-.75-.75-.75zm5.414 0c-.414 0-.75.336-.75.75s.336.75.75.75.75-.336.75-.75-.336-.75-.75-.75z"/>
</svg>
