<svg xmlns="http://www.w3.org/2000/svg" viewBox="0 0 1024 1024" fill="currentColor">
  <path d="M772.1 202.5c-11.2-31.3-45.8-55.3-78.8-55.3H330.7c-33 0-67.6 24-78.8 55.3L146.6 550.6c-11.2 31.3 7.5 66.4 40.5 66.4h15.5v204.8c0 28.3 23 51.2 51.2 51.2 28.3 0 51.2-22.9 51.2-51.2V617h358.4v204.8c0 28.3 22.9 51.2 51.2 51.2 28.3 0 51.2-22.9 51.2-51.2V617h15.5c33 0 51.7-35.1 40.5-66.4L772.1 202.5zM330.7 230.4h362.6l71.1 256H259.6l71.1-256zM460.8 384c0 28.3-22.9 51.2-51.2 51.2s-51.2-22.9-51.2-51.2 22.9-51.2 51.2-51.2 51.2 22.9 51.2 51.2zm204.8 0c0 28.3-22.9 51.2-51.2 51.2s-51.2-22.9-51.2-51.2 22.9-51.2 51.2-51.2 51.2 22.9 51.2 51.2z"/>
</svg>
