<svg xmlns="http://www.w3.org/2000/svg" viewBox="0 0 24 24" fill="currentColor">
  <path d="M8.696 15.162c-.004 1.586.004 3.173 0 4.759-.005.725-.483 1.227-1.169 1.274-.551.038-1.056-.157-1.48-.502-.727-.591-1.402-1.242-2.066-1.898-.475-.47-.887-1.01-1.404-1.413-.771-.6-1.594-.96-2.55-.984-1.026-.026-1.785.35-2.376 1.2-.195.28-.346.594-.517.892-.307.538-.725.87-1.278 1.055-.385.128-.703.075-1.007-.204-.122-.112-.243-.353-.195-.526.06-.213.238-.38.372-.561.535-.716.884-1.52 1.097-2.406.37-1.54.255-3.038-.186-4.53-.354-1.198-.873-2.32-1.53-3.385C.175 10.752.274 9.95.755 9.438c.416-.443.978-.47 1.518-.432.777.056 1.466.35 2.075.85.57.467 1.082.988 1.565 1.544.286.328.515.708.77 1.066.31.436.703.77 1.165.995.53.26 1.08.346 1.65.26.596-.09 1.096-.35 1.47-.83.343-.44.576-.935.736-1.48.178-.61.29-1.236.324-1.876.063-1.186.028-2.375-.098-3.553-.064-.597-.19-1.18-.378-1.743-.143-.43-.064-.834.19-1.206.28-.41.674-.656 1.13-.815.463-.162.946-.18 1.42-.046.55.155.988.48 1.296.97.326.52.47 1.106.474 1.728.014 1.837.014 3.674 0 5.511-.003.696-.224 1.32-.676 1.856-.538.64-1.22 1.082-2.032 1.272-.474.11-.956.13-1.43.044zm-2.672-2.74c0-.293-.01-.586 0-.879.005-.354-.106-.668-.35-.912a1.147 1.147 0 0 0-.846-.345c-.345.003-.656.128-.89.383-.24.26-.35.574-.346.923.003.574.003 1.148 0 1.722-.004.35.11.662.35.91.236.244.53.366.878.362.34-.004.63-.124.864-.366.24-.25.348-.56.342-.912-.004-.294-.002-.587-.002-.886zm4.032-4.02c-.354 0-.653.122-.896.366-.246.248-.366.55-.366.896 0 .35.122.65.37.894.246.244.55.366.9.366.354 0 .656-.124.9-.37.24-.246.364-.548.364-.896 0-.35-.126-.654-.374-.9-.24-.244-.54-.36-.898-.36zm2.034 5.17c.216.336.39.686.52 1.064.208.61.254 1.236.136 1.872-.116.634-.38 1.21-.782 1.72-.416.528-.954.898-1.602 1.096-.65.198-1.3.226-1.964.064-.662-.16-1.25-.476-1.76-.946-.506-.47-.872-1.03-1.09-1.68-.214-.648-.264-1.316-.142-1.992.122-.674.4-1.29.82-1.82.42-.532.95-.922 1.58-1.154.628-.232 1.28-.284 1.946-.148.664.134 1.254.42 1.76.852.504.43.866.96 1.086 1.58.08.228.13.466.138.706.004.092-.002.184-.006.276-.004.07-.03.136-.056.196l-.066.146c-.038.082-.082.158-.134.23-.052.072-.11.136-.174.196a1.07 1.07 0 0 1-.212.152c-.078.042-.16.076-.248.096-.088.022-.178.034-.27.034-.092 0-.182-.012-.27-.034-.088-.022-.17-.056-.248-.096a1.07 1.07 0 0 1-.212-.152c-.064-.06-.122-.124-.174-.196-.052-.072-.096-.148-.134-.23-.038-.082-.072-.164-.096-.252-.022-.088-.036-.178-.044-.27-.004-.092.002-.184.014-.276.012-.092.036-.182.068-.27.034-.088.078-.172.13-.25.054-.078.116-.15.186-.214.07-.064.148-.12.232-.166.084-.046.174-.082.268-.106.094-.024.19-.038.29-.04.1-.002.198.006.296.024.098.018.192.048.282.088.09.04.174.092.25.152.078.06.146.132.206.21.06.078.11.164.148.256z"/>
</svg>
