<svg xmlns="http://www.w3.org/2000/svg" viewBox="0 0 24 24" fill="currentColor">
  <path d="M8.696 4.002c4.282 0 7.686 2.93 7.686 6.554 0 1.436-.546 2.78-1.63 3.894l.48 1.742-1.944-1.128a9.102 9.102 0 0 1-2.076.28c-4.282 0-7.686-2.93-7.686-6.554 0-3.624 3.404-4.788 5.17-4.788zm-2.92 3.228c-.632 0-1.146.514-1.146 1.146s.514 1.146 1.146 1.146 1.146-.514 1.146-1.146-.514-1.146-1.146-1.146zm5.84 0c-.632 0-1.146.514-1.146 1.146s.514 1.146 1.146 1.146 1.146-.514 1.146-1.146-.514-1.146-1.146-1.146zM15.51 8.558c3.352 0 6.034 2.312 6.034 5.166 0 2.854-2.682 5.166-6.034 5.166a7.67 7.67 0 0 1-1.63-.222l-1.464.848.366-1.366c-1.274-.97-2.088-2.394-2.088-4.026 0-3.066 2.744-5.566 6.116-5.566zm-2.34 3.222c-.512 0-.928.416-.928.928s.416.928.928.928.928-.416.928-.928-.416-.928-.928-.928zm4.68 0c-.512 0-.928.416-.928.928s.416.928.928.928.928-.416.928-.928-.416-.928-.928-.928z"/>
</svg>
