<svg xmlns="http://www.w3.org/2000/svg" viewBox="0 0 24 24" fill="currentColor">
  <path d="M21.132 8.793c-.04-.236-.103-.466-.19-.69-.11-.282-.246-.55-.406-.802-.164-.256-.35-.492-.556-.706-.21-.218-.438-.414-.682-.586-.248-.174-.51-.326-.784-.454-.278-.13-.568-.234-.866-.312-.302-.08-.612-.132-.926-.16-.316-.028-.636-.028-.954 0-.318.028-.628.08-.93.16-.298.078-.588.182-.866.312-.274.128-.536.28-.784.454-.244.172-.472.368-.682.586-.206.214-.392.45-.556.706-.16.252-.296.52-.406.802-.087.224-.15.454-.19.69-.04.236-.06.476-.06.716 0 .24.02.48.06.716.04.236.103.466.19.69.11.282.246.55.406.802.164.256.35.492.556.706.21.218.438.414.682.586.248.174.51.326.784.454.278.13.568.234.866.312.302.08.612.132.926.16.316.028.636.028.954 0 .318-.028.628-.08.93-.16.298-.078.588-.182.866-.312.274-.128.536-.28.784-.454.244-.172.472-.368.682-.586.206-.214.392-.45.556-.706.16-.252.296-.52.406-.802.087-.224.15-.454.19-.69.04-.236.06-.476.06-.716 0-.24-.02-.48-.06-.716zM12 15.5c-1.933 0-3.5-1.567-3.5-3.5s1.567-3.5 3.5-3.5 3.5 1.567 3.5 3.5-1.567 3.5-3.5 3.5zM8.46 6.46l-1.17-1.17c-.2-.2-.51-.2-.71 0-.2.2-.2.51 0 .71l1.17 1.17c.2.2.51.2.71 0 .2-.2.2-.51 0-.71zm8.08 0l1.17-1.17c.2-.2.51-.2.71 0 .2.2.2.51 0 .71l-1.17 1.17c-.2.2-.51.2-.71 0-.2-.2-.2-.51 0-.71zM12 4.5V2c0-.28-.22-.5-.5-.5s-.5.22-.5.5v2.5c0 .28.22.5.5.5s.5-.22.5-.5zM4.5 12H2c-.28 0-.5.22-.5.5s.22.5.5.5h2.5c.28 0 .5-.22.5-.5s-.22-.5-.5-.5zm17.5 0h-2.5c-.28 0-.5.22-.5.5s.22.5.5.5H22c.28 0 .5-.22.5-.5s-.22-.5-.5-.5zM8.46 17.54l-1.17 1.17c-.2.2-.51.2-.71 0-.2-.2-.2-.51 0-.71l1.17-1.17c.2-.2.51-.2.71 0 .2.2.2.51 0 .71zm8.08 0l1.17 1.17c.2.2.51.2.71 0 .2-.2.2-.51 0-.71l-1.17-1.17c-.2-.2-.51-.2-.71 0-.2.2-.2.51 0 .71z"/>
</svg>
