<svg xmlns="http://www.w3.org/2000/svg" viewBox="0 0 24 24" fill="currentColor">
  <path d="M5.501 4.75C3.052 4.75 1 6.84 1 9.326c0 2.788 2.035 5.076 4.587 5.752l.413.104v2.668l.58-.432c.068-.05.13-.1.186-.148.34.143.71.22 1.103.22 1.625 0 2.976-1.18 3.374-2.74a13.397 13.397 0 0 0 3.256 0c.398 1.56 1.749 2.74 3.374 2.74.393 0 .763-.077 1.103-.22.056.048.118.098.186.148l.58.432v-2.668l.413-.104C22.965 14.4 25 12.114 25 9.326 25 6.84 22.948 4.75 20.499 4.75H5.501zM18.2 7.85a1.1 1.1 0 1 1 0 2.2 1.1 1.1 0 0 1 0-2.2zm-6.4 0a1.1 1.1 0 1 1 0 2.2 1.1 1.1 0 0 1 0-2.2zm-6.4 0a1.1 1.1 0 1 1 0 2.2 1.1 1.1 0 0 1 0-2.2z"/>
</svg>
